<?xml version="1.0" standalone="no"?>
<!DOCTYPE svg PUBLIC "-//W3C//DTD SVG 20010904//EN"
 "http://www.w3.org/TR/2001/REC-SVG-20010904/DTD/svg10.dtd">
<svg version="1.0" xmlns="http://www.w3.org/2000/svg"
 width="400.000000pt" height="400.000000pt" viewBox="0 0 400.000000 400.000000"
 preserveAspectRatio="xMidYMid meet">
<metadata>
Created by potrace 1.14, written by Peter Selinger 2001-2017
</metadata>
<g transform="translate(0.000000,400.000000) scale(0.100000,-0.100000)"
fill="#000000" stroke="none">
<path d="M1890 3849 c-8 -11 -14 -25 -12 -31 1 -5 -2 -7 -7 -4 -10 6 -71 -58
-71 -75 0 -5 -10 -23 -21 -38 -12 -16 -19 -35 -17 -43 3 -8 12 1 22 22 12 26
15 28 11 10 -2 -14 -5 -31 -5 -37 0 -7 -8 -13 -19 -13 -21 0 -45 -23 -34 -33
3 -4 1 -7 -5 -7 -7 0 -12 -11 -12 -25 0 -22 -4 -25 -35 -25 -19 0 -35 -4 -35
-9 0 -5 15 -8 33 -6 l32 3 -34 -15 c-24 -10 -31 -17 -22 -22 16 -10 -8 -21
-45 -21 -15 0 -23 -4 -19 -11 4 -6 1 -10 -6 -8 -39 5 -51 -1 -46 -22 4 -17 3
-19 -6 -10 -6 6 -16 11 -21 11 -6 0 -5 -5 2 -12 7 -7 12 -17 12 -22 0 -6 -4
-5 -9 2 -7 11 -11 11 -24 -2 -8 -9 -24 -16 -34 -16 -15 0 -16 -2 -3 -10 11 -7
11 -10 2 -10 -7 0 -10 -5 -7 -11 5 -7 13 -5 24 5 29 27 32 18 6 -20 -14 -20
-22 -40 -19 -45 3 -5 0 -9 -6 -9 -5 0 -27 -25 -48 -56 -20 -31 -45 -69 -54
-83 -10 -14 -21 -32 -24 -38 -3 -7 -11 -10 -17 -6 -6 3 -7 1 -3 -5 4 -6 2 -21
-5 -33 -6 -12 -12 -44 -13 -73 0 -28 -4 -56 -8 -61 -3 -6 -4 -28 -2 -50 2 -22
4 -66 4 -97 0 -32 5 -67 12 -78 11 -18 10 -23 -9 -38 -28 -22 -48 -122 -39
-194 3 -29 10 -115 15 -190 8 -122 13 -143 37 -189 31 -56 104 -126 141 -135
27 -7 27 -9 49 -169 25 -175 25 -169 -16 -173 -84 -7 -128 -44 -155 -132 -9
-30 -23 -62 -31 -70 -7 -8 -27 -47 -44 -85 -68 -153 -68 -153 -124 -171 -28
-9 -65 -27 -83 -40 -17 -13 -37 -24 -43 -24 -12 0 -128 -96 -175 -144 -16 -17
-69 -56 -118 -86 -155 -97 -365 -248 -432 -311 -93 -88 -205 -240 -255 -347
-15 -33 -20 -65 -20 -128 l0 -84 1771 0 1771 0 -7 27 c-3 16 -10 66 -15 112
-15 136 -43 217 -117 327 -18 29 -48 80 -65 115 -45 89 -201 240 -328 317
-150 91 -161 97 -235 127 -105 42 -157 57 -148 42 8 -13 236 -315 268 -354 15
-18 20 -41 22 -94 1 -38 -1 -69 -5 -69 -4 0 -6 -18 -4 -40 4 -38 -9 -70 -29
-70 -5 0 -9 12 -8 28 0 15 3 21 6 15 12 -30 20 -8 17 47 -2 32 1 62 6 65 12 8
13 55 1 55 -5 0 -11 14 -15 30 -7 38 -41 55 -91 46 l-37 -7 6 -51 c9 -62 -13
-112 -79 -180 -25 -26 -45 -52 -45 -58 0 -6 -6 -13 -14 -16 -10 -4 -17 -28
-21 -72 -11 -117 -51 -247 -80 -258 -7 -3 -16 -15 -19 -27 -14 -58 -88 -50
-90 10 -1 17 2 29 7 26 4 -2 7 3 7 12 0 9 -5 13 -11 9 -11 -6 -9 9 8 84 3 12
0 22 -6 22 -6 0 -8 -8 -4 -17 5 -14 3 -16 -7 -6 -17 15 -5 44 15 37 11 -4 20
7 35 42 12 27 29 65 39 85 17 35 17 36 0 26 -10 -6 -15 -15 -13 -19 3 -4 1 -8
-5 -8 -6 0 -7 -7 -4 -17 4 -11 3 -14 -5 -9 -8 5 -10 2 -6 -8 3 -9 1 -16 -5
-16 -6 0 -10 -3 -10 -7 4 -23 -2 -43 -11 -38 -6 4 -7 -1 -3 -11 4 -12 3 -15
-5 -10 -17 10 -15 26 8 71 11 22 18 45 15 52 -2 7 -1 13 4 13 4 0 8 7 8 15 0
25 -14 7 -37 -50 -28 -69 -38 -66 -12 3 11 28 17 54 13 59 -3 4 -4 7 -2 6 6
-4 30 30 31 41 0 6 -6 2 -13 -8 -12 -16 -14 -16 -26 -2 -12 14 -11 23 4 59 39
94 44 113 25 102 -6 -4 -3 9 6 29 10 19 21 33 26 30 4 -3 5 2 2 11 -5 12 -9
13 -20 4 -9 -7 -14 -8 -14 -1 0 6 12 20 26 31 15 12 23 21 18 21 -5 0 -2 5 6
10 13 8 13 10 -1 10 -9 0 -19 -7 -23 -15 -3 -8 -13 -14 -23 -14 -15 1 -15 2
-2 6 9 2 26 22 38 43 17 31 20 44 11 60 -6 11 -7 20 -2 20 5 0 9 7 9 15 0 14
-2 14 -15 2 -11 -12 -12 -19 -2 -37 9 -17 8 -26 -5 -46 -8 -13 -20 -24 -25
-24 -6 0 -1 9 10 20 11 11 20 26 20 33 0 6 -9 1 -19 -12 -13 -16 -18 -19 -18
-7 0 8 6 17 14 20 7 3 13 10 13 16 0 6 -5 8 -12 4 -13 -9 30 66 46 79 7 5 4 6
-7 3 -15 -5 -17 -2 -12 17 4 16 2 15 -11 -7 -9 -16 -17 -34 -18 -40 -1 -6 -4
-15 -8 -21 -18 -30 -51 -180 -53 -240 -1 -38 -9 -92 -17 -120 -9 -27 -18 -78
-22 -112 -4 -35 -9 -70 -12 -78 -4 -8 1 -17 10 -21 17 -7 21 -34 8 -49 -11
-13 -3 -107 9 -99 5 3 9 15 10 27 0 22 0 22 12 -1 9 -20 8 -26 -6 -33 -12 -7
-17 -23 -17 -50 l0 -41 -57 32 c-86 48 -167 105 -273 189 -52 42 -103 82 -113
89 -16 12 -27 4 -115 -87 -53 -56 -105 -101 -114 -101 -10 0 -17 3 -16 8 1 4
-25 63 -59 132 -33 69 -68 143 -78 165 -10 22 -44 89 -77 148 -57 103 -59 109
-41 123 17 14 17 14 -4 5 -19 -10 -25 -5 -62 54 -23 35 -41 69 -41 73 0 5 -9
21 -20 35 -15 18 -17 27 -8 30 8 3 6 6 -4 6 -19 1 -25 31 -7 31 8 0 7 5 -2 16
-12 14 -14 14 -20 -3 -3 -10 0 -31 8 -46 18 -36 25 -69 12 -62 -5 4 -7 10 -5
14 3 4 -5 18 -17 32 -12 14 -18 20 -14 13 4 -7 3 -14 -2 -16 -7 -2 -5 -14 4
-32 9 -16 14 -30 12 -32 -4 -5 -161 134 -166 147 -4 12 35 56 63 71 16 8 18 7
13 -6 -4 -11 -1 -16 10 -16 9 0 21 -8 28 -17 7 -9 22 -17 33 -18 l22 -2 -21
34 c-11 18 -17 33 -12 33 4 0 2 4 -6 9 -9 6 -10 11 -2 15 10 6 15 -5 12 -26 0
-4 8 -10 19 -13 11 -4 18 -10 15 -15 -3 -4 2 -11 11 -14 8 -3 12 -10 9 -16 -3
-5 -1 -10 4 -10 6 0 11 -7 11 -15 0 -8 5 -15 10 -15 6 0 10 -4 10 -9 0 -5 15
-31 33 -59 23 -35 35 -46 43 -38 7 7 -7 37 -48 101 -33 49 -59 94 -58 99 1 5
-4 13 -12 17 -7 5 -8 9 -2 9 6 0 41 -45 78 -100 37 -56 71 -98 77 -94 6 3 13
-3 16 -15 3 -12 9 -21 15 -21 11 0 -3 28 -62 115 -63 95 -65 98 -51 94 7 -3
11 -8 9 -12 -2 -5 5 -13 15 -18 9 -6 15 -14 12 -20 -4 -5 -2 -9 4 -9 6 0 28
-27 51 -60 28 -41 45 -57 55 -53 13 5 13 7 -2 19 -10 7 -14 14 -10 14 4 0 -11
27 -33 60 -22 33 -37 60 -33 60 4 0 -2 7 -13 15 -10 8 -14 15 -7 15 7 0 30
-26 53 -57 41 -57 66 -80 77 -69 3 3 -20 41 -51 86 -31 44 -53 80 -49 80 5 0
1 5 -7 11 -13 9 -13 10 0 6 8 -2 14 -10 12 -16 -1 -6 2 -11 7 -11 6 0 31 -29
56 -65 26 -36 51 -63 56 -59 5 3 9 7 9 10 0 3 -4 3 -9 0 -5 -3 -11 8 -15 25
-3 17 -22 53 -42 80 -20 27 -32 49 -27 49 4 0 -1 7 -11 15 -11 8 -15 15 -9 15
7 0 21 -13 33 -30 12 -16 19 -30 16 -30 -3 0 14 -20 38 -45 24 -24 42 -46 39
-48 -2 -3 3 -7 10 -10 25 -9 8 33 -40 101 -25 34 -41 62 -37 62 4 0 -1 7 -12
15 -10 8 -14 15 -8 15 7 0 24 -17 40 -37 44 -59 78 -93 92 -93 7 0 10 5 7 10
-4 6 -11 7 -17 4 -7 -4 -8 -2 -4 4 4 7 -13 41 -39 77 -68 95 -37 80 36 -17 63
-84 89 -115 74 -89 -6 11 -4 13 10 7 15 -5 16 -4 5 9 -7 8 -17 12 -23 8 -6 -3
-7 -1 -3 6 5 7 -4 28 -19 49 -15 20 2 7 37 -30 36 -38 67 -68 71 -68 4 0 2 11
-3 25 -5 14 -7 31 -4 40 5 12 9 12 30 -2 18 -11 24 -12 24 -3 0 7 11 0 25 -16
19 -21 24 -23 19 -9 -7 18 -6 18 9 6 9 -7 17 -22 17 -32 0 -11 5 -19 11 -19 5
0 7 -5 4 -10 -4 -6 -2 -9 3 -8 5 2 30 -18 57 -45 27 -26 51 -45 53 -42 3 3 11
0 18 -6 8 -7 14 -7 19 1 4 6 1 9 -7 8 -8 -2 -12 5 -10 17 3 26 3 45 1 70 -3
35 1 45 16 39 8 -4 15 -1 15 5 0 6 -6 11 -12 12 -7 0 -2 5 12 11 32 14 101 17
93 5 -7 -12 64 -2 81 12 7 6 15 8 18 5 7 -6 75 -7 103 0 11 2 24 5 29 5 4 1 6
8 2 16 -5 13 -2 13 19 -1 14 -9 25 -12 25 -8 0 18 -41 34 -70 29 -22 -4 -30
-1 -30 9 0 9 8 13 23 10 12 -2 15 -1 7 2 -8 4 -18 11 -21 16 -3 5 -13 2 -22
-6 -11 -12 -16 -13 -20 -3 -3 9 -7 9 -19 0 -17 -14 -28 -8 -28 16 0 14 2 14
10 1 5 -8 10 -10 10 -5 0 6 -4 16 -9 24 -7 11 -10 9 -16 -9 -4 -12 -16 -31
-26 -41 -19 -19 -19 -19 -19 5 0 14 4 28 10 31 15 9 12 34 -5 51 -8 9 -15 21
-15 27 0 8 3 7 9 -2 7 -11 10 -11 17 0 12 20 14 40 3 33 -5 -3 -6 -10 -3 -16
4 -7 2 -8 -5 -4 -6 4 -10 15 -9 24 2 12 -4 17 -19 16 -24 -1 -31 10 -13 21 6
3 10 2 10 -3 0 -13 28 -10 34 4 3 8 -2 10 -16 6 -14 -3 -19 -1 -14 6 4 7 0 12
-10 12 -10 0 -14 -3 -11 -7 4 -3 2 -12 -4 -20 -9 -10 -15 -10 -25 -2 -8 6 -14
16 -14 22 0 6 7 2 16 -9 8 -10 13 -13 9 -6 -3 7 3 24 14 38 12 15 21 21 21 14
0 -9 6 -7 20 5 20 18 20 17 20 -8 0 -19 4 -25 14 -21 8 3 25 0 38 -7 22 -12
22 -11 8 6 -9 11 -10 16 -2 11 6 -4 18 -4 25 1 6 4 18 8 25 9 23 4 26 14 10
30 -14 14 -17 14 -32 -1 -9 -9 -13 -21 -10 -27 4 -6 2 -8 -3 -5 -6 4 -8 17 -6
31 6 29 -10 41 -37 26 -16 -9 -22 -8 -27 5 -5 13 -7 14 -14 3 -7 -10 -9 -10
-9 0 0 7 7 15 15 18 13 5 13 8 0 21 -34 33 -13 42 96 41 55 -1 92 4 130 19 82
31 158 53 187 53 18 0 23 3 16 10 -8 8 -19 8 -38 0 -15 -5 -54 -10 -87 -10
-33 0 -59 -4 -59 -10 0 -5 -13 -10 -29 -10 -17 0 -32 -4 -36 -9 -8 -15 -163
-13 -172 2 -5 7 -14 12 -22 12 -8 0 -16 6 -19 14 -4 12 9 13 74 8 71 -5 76 -5
50 7 -21 9 -25 15 -15 20 8 3 -3 5 -23 3 -21 -2 -34 1 -31 7 4 5 -1 7 -10 3
-27 -10 -40 26 -17 45 10 9 22 12 26 8 14 -14 72 -21 79 -10 3 5 -3 10 -14 10
-12 0 -21 3 -21 8 1 12 27 42 32 37 3 -3 4 6 3 20 -3 21 1 25 22 25 24 0 24 0
-12 42 -36 42 -37 45 -32 108 3 36 10 77 17 91 8 18 9 44 3 85 -5 32 -5 81 -2
107 4 26 3 62 -1 79 -11 35 -6 48 16 48 9 0 14 6 11 13 -2 6 3 20 11 30 15 16
14 17 -16 15 -29 -2 -40 -21 -21 -38 3 -3 -5 -21 -19 -40 l-24 -35 7 32 c10
51 -7 70 -88 94 -118 34 -128 39 -72 33 28 -3 66 -10 85 -15 46 -12 47 -12 47
6 0 8 -5 15 -10 15 -5 0 -7 6 -4 13 5 14 -96 73 -120 71 -7 -1 -13 2 -13 7 0
5 -7 9 -15 9 -8 0 -15 5 -15 11 0 5 -4 7 -10 4 -5 -3 -10 -2 -10 3 0 6 -9 8
-20 5 -11 -3 -20 -1 -20 5 0 6 -9 14 -20 17 -11 3 -20 15 -20 25 0 10 -5 22
-10 25 -8 5 -7 12 2 22 7 9 12 19 11 22 -2 3 1 6 6 6 5 0 13 4 18 9 4 5 3 6
-3 3 -7 -4 -16 -1 -22 6 -10 12 -12 17 -12 38 0 5 -4 7 -10 4 -5 -3 -10 2 -10
12 0 11 -5 24 -11 30 -7 7 -5 15 6 27 15 14 15 16 1 16 -9 0 -16 -4 -16 -10 0
-5 -4 -10 -9 -10 -5 0 -8 11 -8 25 0 13 3 22 8 20 7 -5 25 33 21 47 -1 4 4 5
12 2 8 -3 17 0 22 7 5 8 3 10 -5 4 -7 -4 -5 4 4 19 10 14 23 26 31 26 7 0 16
5 20 12 5 8 2 9 -9 5 -9 -3 -19 -2 -22 3 -4 6 3 10 14 10 12 0 21 4 21 10 0 5
-7 7 -15 4 -8 -4 -15 -1 -15 6 0 6 4 9 9 6 12 -8 44 18 48 40 6 29 6 37 -2 59
-5 15 -4 16 3 6 6 -8 17 -11 28 -7 11 4 14 10 9 14 -6 4 -11 22 -13 40 -2 24
1 32 12 32 9 0 16 -9 16 -20 0 -11 4 -20 10 -20 5 0 7 6 4 13 -2 7 2 21 10 32
9 11 16 16 16 10 0 -5 19 -10 43 -9 23 0 51 -5 62 -11 11 -6 31 -10 45 -8 14
1 48 3 75 4 28 1 55 6 61 10 14 11 166 -18 175 -33 4 -6 11 -8 17 -4 6 3 13 2
17 -4 3 -5 12 -10 18 -10 7 0 6 4 -3 10 -13 9 -13 10 1 10 8 0 20 -5 26 -11 8
-8 13 -8 17 0 5 7 15 6 31 -5 13 -9 26 -15 29 -15 30 4 76 -1 76 -9 0 -5 -8
-7 -17 -4 -10 2 -2 -3 17 -13 45 -23 64 -46 96 -112 42 -90 57 -195 56 -400
-1 -124 -5 -188 -13 -197 -15 -18 -12 -21 38 -32 38 -9 41 -8 40 9 -1 11 -5
19 -10 19 -4 0 -5 5 -2 10 3 6 0 10 -7 10 -8 1 -6 6 6 15 16 12 17 17 6 30
-17 20 -3 19 18 -2 15 -15 17 -13 25 23 5 21 6 67 3 102 -3 39 -2 61 4 57 6
-3 10 5 10 19 0 14 -6 26 -12 26 -9 0 -9 3 -3 8 12 8 35 112 35 158 0 20 3 25
9 15 5 -8 11 -9 15 -3 3 6 2 13 -4 17 -6 4 -8 10 -5 15 3 4 -8 38 -25 74 -16
37 -27 73 -24 80 6 17 -40 118 -62 137 -8 7 -13 18 -10 26 4 9 -3 13 -19 13
-17 0 -23 4 -19 14 3 8 -2 16 -13 19 -16 4 -16 5 2 6 11 1 27 6 35 12 11 7 3
8 -30 4 -33 -4 -41 -3 -30 4 12 9 10 11 -10 12 -58 2 36 21 100 20 56 -2 63 0
50 12 -14 13 -142 40 -183 39 -9 -1 -15 3 -12 9 4 5 1 9 -6 9 -9 0 -8 4 2 13
8 6 22 21 29 31 14 19 14 19 -10 4 -26 -17 -84 -22 -74 -7 3 5 -4 9 -14 9 -11
0 -23 7 -26 16 -3 9 -13 14 -21 11 -10 -4 -12 -1 -8 10 4 10 2 14 -4 10 -5 -3
-38 21 -73 54 -59 56 -62 61 -44 74 18 13 18 14 2 20 -10 4 -25 5 -33 1 -8 -3
-15 -1 -15 4 0 6 6 11 13 11 28 3 32 4 35 14 2 6 8 17 12 25 7 13 2 15 -28 12
-21 -1 -47 -3 -60 -3 -12 -1 -25 -6 -28 -10 -3 -5 -10 -7 -15 -4 -5 4 -9 2 -9
-4 0 -6 -7 -8 -15 -5 -23 9 -18 21 13 33 25 9 24 10 -15 9 -24 -1 -43 -6 -43
-10 0 -4 -4 -8 -10 -8 -5 0 -10 7 -10 15 0 8 -4 15 -10 15 -5 0 -10 -4 -10 -9
0 -11 -19 -9 -39 3 -11 7 -11 10 0 18 11 7 9 8 -6 5 -11 -2 -19 -8 -18 -15 2
-6 -3 -9 -11 -6 -8 3 -17 1 -21 -5 -11 -19 -35 -12 -35 9 0 16 -4 19 -17 12
-33 -17 -113 -23 -113 -9 0 7 -9 13 -20 14 -22 2 -28 -22 -7 -31 6 -3 0 -4
-15 -2 -16 2 -28 -2 -28 -8 0 -8 -2 -8 -8 0 -4 6 -22 11 -40 11 -18 0 -28 -3
-22 -7 6 -4 5 -13 -4 -26 -17 -23 -27 -15 -30 21 -1 22 -5 25 -23 20 -25 -6
-30 4 -11 23 19 19 -12 15 -34 -5 -11 -9 -18 -11 -18 -5 0 7 5 12 10 12 6 0
10 9 10 20 0 11 5 20 10 20 6 0 10 5 10 10 0 18 -25 11 -40 -11z m80 -106 c0
-7 -4 -13 -9 -13 -5 0 -11 6 -14 13 -3 8 1 14 9 14 8 0 14 -6 14 -14z m-5
-734 c-10 -15 -25 -10 -19 6 4 8 10 12 15 9 5 -3 7 -10 4 -15z m-55 -19 c0 -5
-5 -10 -11 -10 -5 0 -7 5 -4 10 3 6 8 10 11 10 2 0 4 -4 4 -10z m1135 -168
c-3 -3 -11 0 -18 7 -9 10 -8 11 6 5 10 -3 15 -9 12 -12z m-1088 -39 c-4 -3 -2
-12 4 -20 18 -21 4 -15 -16 7 -17 19 -17 20 0 20 10 0 15 -3 12 -7z m3 -103
c0 -5 -5 -10 -11 -10 -5 0 -7 5 -4 10 3 6 8 10 11 10 2 0 4 -4 4 -10z m1087
-57 c-3 -10 -5 -2 -5 17 0 19 2 27 5 18 2 -10 2 -26 0 -35z m-839 -179 c29
-12 32 -16 22 -33 -8 -16 -17 -19 -43 -14 -31 6 -87 48 -87 66 0 11 62 1 108
-19z m-93 -20 c40 -33 44 -44 14 -44 -11 0 -17 -4 -14 -10 3 -5 1 -10 -5 -10
-6 0 -10 6 -8 14 2 8 -12 30 -30 50 -27 30 -29 35 -12 33 11 -2 35 -16 55 -33z
m-58 -13 c36 -29 30 -51 -15 -51 -40 0 -13 -19 31 -22 38 -3 50 -21 20 -32
-15 -6 -15 -8 -3 -16 13 -8 12 -10 -2 -10 -10 0 -18 -4 -18 -10 0 -5 -7 -6
-17 -3 -11 4 -14 3 -9 -5 4 -7 2 -12 -3 -12 -19 0 -12 -20 7 -21 16 -1 16 -2
-1 -6 -9 -2 -15 -9 -11 -14 3 -5 -2 -17 -11 -26 -15 -14 -26 -15 -87 -5 -39 6
-75 15 -79 19 -15 15 -20 55 -6 50 7 -2 11 -14 9 -27 -2 -14 0 -20 7 -15 6 3
9 11 6 16 -4 5 -1 9 4 9 6 0 11 6 11 14 0 8 10 16 23 18 17 3 14 6 -15 12 -21
5 -38 11 -38 15 0 8 3 9 58 12 17 1 32 5 32 9 0 4 10 10 21 13 15 4 20 11 15
23 -4 10 0 25 10 35 10 11 15 28 12 43 -6 28 -2 27 49 -13z m-67 4 c0 -8 -4
-15 -9 -15 -13 0 -22 16 -14 24 11 11 23 6 23 -9z m-273 -72 c-2 -16 -4 -3 -4
27 0 30 2 43 4 28 2 -16 2 -40 0 -55z m34 -109 c16 -19 4 -18 -15 2 -9 8 -16
27 -15 42 l1 27 8 -28 c5 -16 14 -35 21 -43z m257 -95 c2 -5 7 -7 11 -4 5 2 8
-21 9 -53 0 -31 1 -61 2 -67 1 -5 2 -15 1 -20 -2 -17 -84 -100 -113 -115 -15
-7 -25 -17 -22 -22 3 -4 -1 -8 -9 -8 -8 0 -20 -7 -27 -15 -9 -11 -15 -12 -25
-2 -11 10 -10 15 2 30 9 9 12 17 7 17 -5 0 -1 5 9 11 19 11 23 34 5 45 -7 4
-8 3 -4 -4 4 -7 4 -12 -1 -12 -15 0 -29 15 -28 30 0 8 -5 26 -12 40 -15 30
-17 57 -3 65 16 10 11 28 -6 21 -12 -5 -14 -1 -8 17 3 12 14 31 23 41 15 18
15 19 -3 12 -19 -6 -19 -6 -3 12 16 17 21 17 104 4 49 -8 90 -19 91 -23z
m-198 -207 c0 -10 -5 -23 -12 -30 -7 -7 -9 -12 -5 -12 4 0 2 -10 -5 -22 -22
-42 -46 -121 -41 -137 5 -12 3 -13 -6 -5 -7 6 -12 20 -11 30 1 52 5 74 12 74
4 0 8 11 8 25 0 36 21 79 32 63 5 -9 8 -6 8 10 0 12 5 22 10 22 6 0 10 -8 10
-18z m81 -210 c17 -19 14 -46 -3 -36 -7 5 -8 2 -4 -5 6 -9 12 -9 25 3 19 17
31 12 31 -12 0 -8 -6 -12 -15 -8 -8 3 -14 2 -14 -2 3 -19 -2 -25 -11 -12 -11
18 -21 10 -23 -19 -1 -24 -6 -25 -28 -8 -28 22 -30 47 -8 83 24 39 29 41 50
16z m-66 -2 c3 -5 1 -10 -4 -10 -6 0 -11 5 -11 10 0 6 2 10 4 10 3 0 8 -4 11
-10z m311 -77 c-10 -10 -19 5 -10 18 6 11 8 11 12 0 2 -7 1 -15 -2 -18z m-600
-371 c-4 -3 -14 2 -24 12 -16 18 -16 18 6 6 13 -6 21 -14 18 -18z m637 21 c-7
-2 -13 -9 -13 -14 0 -6 5 -7 10 -4 6 3 10 1 10 -4 0 -6 -7 -11 -16 -11 -14 0
-14 -3 -4 -15 11 -14 14 -13 25 1 6 10 15 13 18 8 3 -6 -3 -15 -13 -22 -14 -8
-21 -8 -26 -1 -4 8 -9 7 -14 -1 -4 -7 -7 2 -7 21 1 33 12 49 32 48 6 0 4 -3
-2 -6z m-48 -43 c-3 -5 -12 -10 -18 -10 -7 0 -6 4 3 10 19 12 23 12 15 0z m52
-92 c-3 -8 -6 -5 -6 6 -1 11 2 17 5 13 3 -3 4 -12 1 -19z m170 -4 c-3 -3 -12
-4 -19 -1 -8 3 -5 6 6 6 11 1 17 -2 13 -5z m-1012 -22 c-3 -3 -11 0 -18 7 -9
10 -8 11 6 5 10 -3 15 -9 12 -12z m70 -12 c3 -5 2 -10 -4 -10 -5 0 -13 5 -16
10 -3 6 -2 10 4 10 5 0 13 -4 16 -10z m-50 -10 c3 -5 2 -10 -4 -10 -5 0 -13 5
-16 10 -3 6 -2 10 4 10 5 0 13 -4 16 -10z m-265 -33 c0 -2 -10 -12 -22 -23
l-23 -19 19 23 c18 21 26 27 26 19z m930 -85 c0 -15 -2 -15 -10 -2 -13 20 -13
33 0 25 6 -3 10 -14 10 -23z m461 -105 c-10 -9 -11 -8 -5 6 3 10 9 15 12 12 3
-3 0 -11 -7 -18z m-1141 -68 c0 -6 -4 -7 -10 -4 -5 3 -10 11 -10 16 0 6 5 7
10 4 6 -3 10 -11 10 -16z m1081 -292 c-10 -9 -11 -8 -5 6 3 10 9 15 12 12 3
-3 0 -11 -7 -18z"/>
<path d="M1975 3820 c3 -5 8 -10 11 -10 2 0 4 5 4 10 0 6 -5 10 -11 10 -5 0
-7 -4 -4 -10z"/>
<path d="M1588 3493 c6 -2 18 -2 25 0 6 3 1 5 -13 5 -14 0 -19 -2 -12 -5z"/>
<path d="M2938 3483 c7 -3 16 -2 19 1 4 3 -2 6 -13 5 -11 0 -14 -3 -6 -6z"/>
<path d="M1498 3457 c-9 -7 -13 -18 -10 -24 5 -7 12 -2 19 13 6 13 10 24 10
24 -1 0 -10 -6 -19 -13z"/>
<path d="M3035 3360 c-13 -5 -14 -9 -5 -9 8 0 24 4 35 9 13 5 14 9 5 9 -8 0
-24 -4 -35 -9z"/>
<path d="M1997 2989 c4 -15 8 -17 19 -8 19 16 17 24 -5 26 -14 1 -17 -3 -14
-18z"/>
<path d="M1959 2868 c-6 -21 -5 -38 1 -38 5 0 8 9 7 20 -1 17 -5 26 -8 18z"/>
<path d="M2642 2565 c-10 -11 -18 -13 -32 -5 -27 14 -29 13 -42 -17 -17 -42
-18 -55 -4 -50 7 3 19 1 26 -3 12 -8 78 16 90 32 3 4 31 8 62 10 31 2 54 6 51
11 -2 4 -13 7 -24 7 -11 0 -18 4 -15 9 15 24 -91 29 -112 6z m-37 -64 c-3 -2
-11 1 -18 7 -8 7 -18 8 -22 4 -5 -4 -5 -1 -1 5 5 10 11 10 26 1 11 -7 17 -14
15 -17z"/>
<path d="M2849 2559 c-11 -7 -11 -9 3 -9 9 0 18 -5 20 -11 2 -7 8 -10 14 -8 5
2 2 11 -7 20 -11 11 -22 14 -30 8z"/>
<path d="M2923 2485 c0 -8 4 -12 9 -9 5 3 6 10 3 15 -9 13 -12 11 -12 -6z"/>
<path d="M3071 2484 c0 -11 3 -14 6 -6 3 7 2 16 -1 19 -3 4 -6 -2 -5 -13z"/>
<path d="M2605 2464 l-30 -14 34 5 c18 3 49 5 69 5 19 0 32 3 29 7 -14 13 -73
12 -102 -3z"/>
<path d="M2758 2473 c7 -3 16 -2 19 1 4 3 -2 6 -13 5 -11 0 -14 -3 -6 -6z"/>
<path d="M2488 2443 c7 -3 16 -2 19 1 4 3 -2 6 -13 5 -11 0 -14 -3 -6 -6z"/>
<path d="M2603 2432 c-25 -4 -54 -32 -33 -32 7 0 10 -7 7 -15 -4 -8 -2 -17 4
-21 6 -3 13 3 16 14 2 11 13 22 22 25 14 3 16 -1 13 -23 -4 -31 19 -60 50 -60
23 0 47 26 48 50 0 12 -2 13 -9 1 -5 -7 -14 -10 -21 -6 -8 5 -7 12 5 25 12 14
13 20 4 26 -17 10 -80 20 -106 16z"/>
<path d="M2836 2407 c4 -12 1 -14 -16 -10 -20 5 -21 4 -11 -15 6 -11 8 -28 4
-38 -5 -14 -3 -16 13 -10 10 5 24 9 30 9 14 1 5 54 -12 68 -12 9 -13 9 -8 -4z"/>
<path d="M2910 2397 c0 -18 52 -30 62 -14 4 6 9 -11 11 -38 l4 -50 -1 49 c-1
35 -5 50 -16 52 -8 2 -25 6 -37 10 -17 4 -23 2 -23 -9z"/>
<path d="M3016 2341 c-5 -7 -10 -52 -12 -99 -4 -85 -4 -86 11 -54 9 19 18 50
21 70 5 45 -8 102 -20 83z"/>
<path d="M2437 2318 c-8 -28 2 -70 14 -62 12 7 11 44 -1 44 -7 0 -7 6 0 20 6
11 7 20 2 20 -6 0 -12 -10 -15 -22z"/>
<path d="M2575 2331 c-17 -7 -16 -8 8 -15 18 -4 25 -11 21 -19 -5 -9 -3 -9 7
1 19 17 -8 43 -36 33z"/>
<path d="M2961 2231 c-7 -28 -22 -63 -33 -78 l-20 -28 26 28 c24 26 51 98 44
119 -2 5 -10 -13 -17 -41z"/>
<path d="M2443 1853 c4 -3 1 -13 -6 -21 -10 -13 -9 -14 9 -4 12 6 24 8 28 4 4
-3 4 1 0 11 -3 9 -13 17 -22 17 -8 0 -12 -3 -9 -7z"/>
<path d="M2350 1785 c-14 -8 -19 -14 -12 -15 10 0 10 -5 1 -21 -8 -15 -8 -19
0 -15 6 4 11 3 11 -2 0 -5 7 -9 15 -9 8 0 15 4 15 9 0 5 4 7 10 3 7 -4 -4 46
-14 62 -1 1 -12 -5 -26 -12z"/>
<path d="M2780 1519 c0 -5 5 -7 10 -4 6 3 10 8 10 11 0 2 -4 4 -10 4 -5 0 -10
-5 -10 -11z"/>
<path d="M2700 1495 c-10 -12 -10 -15 2 -15 8 0 15 7 15 15 0 8 -1 15 -2 15
-2 0 -8 -7 -15 -15z"/>
<path d="M2347 1458 c6 -7 12 -20 15 -28 4 -11 8 -9 17 9 7 13 8 21 3 17 -6
-3 -13 -2 -17 4 -3 5 -11 10 -17 10 -7 0 -7 -4 -1 -12z"/>
<path d="M2405 1459 c-4 -6 -5 -12 -2 -15 2 -3 7 2 10 11 7 17 1 20 -8 4z"/>
<path d="M2667 1446 c-4 -10 -1 -13 9 -9 7 3 14 9 14 14 0 14 -17 10 -23 -5z"/>
<path d="M2741 1424 c0 -11 3 -14 6 -6 3 7 2 16 -1 19 -3 4 -6 -2 -5 -13z"/>
<path d="M2666 1314 c-5 -14 -4 -15 9 -4 17 14 19 20 6 20 -5 0 -12 -7 -15
-16z"/>
<path d="M2631 1291 c-8 -5 -9 -11 -3 -15 5 -3 12 1 16 9 6 17 6 18 -13 6z"/>
<path d="M2569 1223 c-13 -16 -12 -17 4 -4 9 7 17 15 17 17 0 8 -8 3 -21 -13z"/>
<path d="M2495 1180 c-3 -6 1 -7 9 -4 18 7 21 14 7 14 -6 0 -13 -4 -16 -10z"/>
<path d="M2463 1165 c0 -8 4 -12 9 -9 5 3 6 10 3 15 -9 13 -12 11 -12 -6z"/>
<path d="M1177 1015 c-14 -29 -14 -35 -3 -35 8 0 17 14 21 31 10 43 2 45 -18
4z"/>
<path d="M1204 987 c-3 -10 -2 -28 3 -40 10 -21 10 -21 15 5 6 34 -8 61 -18
35z"/>
<path d="M1460 864 c0 -1 11 -9 23 -17 19 -12 24 -13 24 -2 0 8 -4 12 -9 9 -4
-3 -8 -1 -8 4 0 5 -7 9 -15 9 -8 0 -15 -1 -15 -3z"/>
<path d="M1475 801 c4 -8 2 -17 -6 -22 -9 -6 -10 -9 -2 -9 19 0 27 21 13 33
-10 9 -11 9 -5 -2z"/>
<path d="M2482 698 c3 -7 12 -14 22 -14 15 -2 15 -2 0 3 -14 4 -14 7 -3 14 11
7 10 9 -4 9 -11 0 -17 -6 -15 -12z"/>
<path d="M2460 624 c1 -12 29 -61 30 -50 0 5 8 2 18 -5 9 -7 4 2 -13 21 -16
19 -31 37 -32 39 -2 2 -3 0 -3 -5z"/>
<path d="M2098 542 c-34 -34 -37 -41 -32 -77 4 -30 3 -36 -5 -25 -6 8 -11 23
-11 33 0 19 -15 23 -25 7 -3 -5 8 -25 24 -42 17 -18 34 -41 37 -50 3 -10 12
-18 19 -18 8 0 19 -9 25 -20 6 -11 16 -18 22 -14 7 4 6 9 -2 14 -9 6 -6 10 9
15 11 3 25 4 30 0 6 -3 14 2 19 11 17 31 -35 205 -61 204 -6 -1 -29 -18 -49
-38z m57 -162 c3 -5 2 -10 -4 -10 -5 0 -13 5 -16 10 -3 6 -2 10 4 10 5 0 13
-4 16 -10z"/>
<path d="M2429 479 c-8 -16 -8 -24 1 -33 10 -8 11 -7 8 4 -3 8 -1 23 4 33 5 9
6 17 4 17 -3 0 -10 -9 -17 -21z"/>
<path d="M2603 470 c1 -11 5 -20 9 -20 3 0 6 9 5 20 -1 11 -5 20 -9 20 -3 0
-6 -9 -5 -20z"/>
<path d="M2432 160 c0 -14 2 -19 5 -12 2 6 2 18 0 25 -3 6 -5 1 -5 -13z"/>
</g>
</svg>
